<?xml version="1.0" standalone="no"?>
<!DOCTYPE svg PUBLIC "-//W3C//DTD SVG 20010904//EN"
 "http://www.w3.org/TR/2001/REC-SVG-20010904/DTD/svg10.dtd">
<svg version="1.0" xmlns="http://www.w3.org/2000/svg"
 width="700.000000pt" height="700.000000pt" viewBox="0 0 700.000000 700.000000"
 preserveAspectRatio="xMidYMid meet">
<metadata>
Created by potrace 1.11, written by Peter Selinger 2001-2013
</metadata>
<g transform="translate(0.000000,700.000000) scale(0.100000,-0.100000)"
fill="#000000" stroke="none">
<path d="M2315 6912 c-35 -2 -92 -12 -175 -28 -208 -42 -565 -228 -830 -432
-180 -139 -455 -398 -581 -547 -19 -22 -36 -42 -39 -45 -4 -3 -6 -30 -7 -60
-1 -64 -12 -695 -18 -980 -4 -188 -10 -516 -20 -1030 -3 -135 -7 -348 -10
-475 -2 -126 -7 -374 -10 -550 -3 -176 -8 -404 -10 -506 l-4 -186 67 -12 c37
-7 81 -15 97 -18 118 -19 322 -113 448 -207 265 -196 521 -573 677 -996 17
-47 35 -94 40 -105 16 -38 80 -258 95 -325 47 -210 53 -236 54 -256 1 -7 33
-15 79 -19 42 -4 84 -9 93 -10 8 -2 53 -6 100 -10 46 -3 100 -8 119 -10 32 -4
60 -6 235 -20 153 -13 185 -15 265 -20 47 -3 114 -7 150 -9 36 -3 128 -8 205
-12 77 -3 163 -8 190 -9 93 -6 522 -16 789 -20 198 -3 266 0 267 8 0 7 2 19 4
27 1 8 6 33 9 55 30 190 57 279 131 426 61 120 186 281 282 364 25 22 58 51
72 64 89 80 369 241 526 301 33 12 69 27 80 31 77 34 278 87 430 115 16 3 32
7 34 10 3 3 6 49 7 102 3 104 12 491 19 762 2 91 7 289 10 440 3 151 8 345 10
430 2 85 7 295 10 465 4 171 8 371 10 445 4 163 17 906 19 1150 3 252 -16 339
-110 501 -72 124 -270 348 -404 456 -19 15 -41 34 -48 41 -8 7 -30 25 -50 40
-21 15 -39 30 -42 33 -3 4 -50 38 -105 77 -55 39 -105 75 -110 79 -136 105
-559 354 -608 358 -18 2 -86 6 -152 10 -66 3 -145 8 -175 10 -30 3 -102 7
-160 10 -114 6 -221 12 -370 20 -179 10 -255 15 -360 20 -58 3 -145 7 -195 10
-49 3 -139 7 -200 10 -60 3 -155 7 -210 10 -326 17 -543 23 -620 17z"/>
</g>
</svg>
